<svg width="34" height="40" viewBox="0 0 34 40" fill="none" xmlns="http://www.w3.org/2000/svg">
<path d="M16.7282 37.342C16.624 37.0235 16.5552 36.8269 16.4952 36.6284C16.0382 35.0901 15.5969 33.548 15.1241 32.0147C14.4773 29.9162 13.753 27.8481 12.6777 25.9197C11.9916 24.6901 11.109 23.6826 9.81252 23.0487C8.87483 22.5906 7.98433 22.0363 7.01814 21.4937C7.19703 21.3807 7.32874 21.2922 7.46536 21.2126C8.65565 20.5226 9.84889 19.8385 11.0343 19.1426C11.163 19.0669 11.3331 18.9362 11.3468 18.8153C11.4146 18.2177 11.4363 17.6142 11.4736 17.0088C11.0018 16.9488 10.5428 16.9223 10.0995 16.8279C7.3248 16.2372 5.83473 13.8016 6.66921 11.2372C6.81271 10.7968 7.16164 10.3221 7.0781 9.9368C6.99062 9.53283 6.48737 9.22519 6.18366 8.86053C5.78165 8.37695 5.39832 7.87862 4.97666 7.34785C3.98688 9.13083 3.32834 10.96 3.23103 12.9337C3.13864 14.8139 3.15044 16.7001 3.15732 18.5843C3.17403 23.0664 2.40147 27.3832 0.516272 31.4731C0.349179 31.8348 0.171275 32.1916 -0.000732422 32.5513L0.0651217 32.5985C1.5375 31.4121 3.01087 30.2258 4.51372 29.0148C5.61358 30.7968 6.68592 32.5346 7.78677 34.3186C8.94757 33.2305 10.0759 32.1719 11.2279 31.0917C13.0679 34.0758 14.8784 37.0127 16.7203 40.0007C18.5692 37.0029 20.3797 34.066 22.2137 31.0907C23.3745 32.1808 24.5009 33.2374 25.6529 34.3186C26.7626 32.5208 27.8349 30.7831 28.9259 29.0158C30.4209 30.2199 31.8825 31.3964 33.3431 32.572C33.3431 32.3832 33.2841 32.2388 33.2153 32.0992C31.6751 28.9451 30.7011 25.618 30.4652 22.1208C30.2902 19.525 30.2932 16.9154 30.2814 14.3117C30.2715 12.227 29.8666 10.2474 28.983 8.36318C28.8267 8.03097 28.6537 7.70661 28.4787 7.36161C27.715 8.28259 26.9946 9.15049 26.2515 10.0459C27.083 11.6117 27.4192 13.2403 26.3498 14.8542C25.3187 16.4112 23.7382 16.937 21.9533 16.9861C21.9975 17.5523 22.0614 18.0732 22.0712 18.5942C22.0761 18.8802 22.1813 19.0316 22.4211 19.1672C23.6045 19.8356 24.7791 20.5197 25.9546 21.1998C26.0982 21.2834 26.2348 21.3797 26.4166 21.4976C25.4878 22.0186 24.6553 22.5484 23.7706 22.969C22.3051 23.6649 21.3419 24.811 20.6018 26.2067C19.6002 28.0978 18.9014 30.1049 18.2733 32.1405C17.7533 33.8271 17.2668 35.5236 16.7272 37.3439L16.7282 37.342ZM3.75197 2.20631C4.12842 2.89729 4.44786 3.61776 4.88329 4.25959C7.25207 7.74986 10.4199 10.3368 14.1019 12.3341C14.3594 12.4737 14.5393 12.4255 14.7703 12.282C16.0421 11.4917 17.3415 11.4829 18.6193 12.2525C18.9328 12.4412 19.1481 12.4314 19.4547 12.2712C21.6761 11.1065 23.6596 9.61736 25.474 7.89533C26.8933 6.54777 28.178 5.08817 29.1039 3.34746C29.2926 2.99362 29.4439 2.62011 29.612 2.25546C29.5707 2.22696 27.943 3.49489 27.2934 3.89493C26.8216 4.18489 26.4019 4.09151 25.9507 3.65904C20.8957 -1.19844 12.6325 -1.21712 7.53711 3.58827C6.91788 4.17211 6.72622 4.2586 6.00084 3.82711C5.22435 3.36515 4.52453 2.77246 3.75197 2.2073V2.20631ZM21.9926 21.4505C21.4156 21.1173 20.9173 20.8126 20.4032 20.5393C20.0071 20.328 19.8548 20.0233 19.8666 19.581C19.8813 19.0414 19.8764 18.4988 19.8302 17.9622C19.7034 16.5065 19.2257 15.215 17.9971 14.3087C17.1852 13.7092 16.2643 13.7072 15.4475 14.3068C14.6238 14.9112 14.04 15.7123 13.8532 16.708C13.6763 17.6496 13.6222 18.6187 13.5741 19.579C13.5515 20.042 13.4129 20.3486 12.9971 20.5639C12.4929 20.8244 12.0093 21.1251 11.5296 21.4023C11.5385 21.4564 11.5346 21.48 11.5444 21.4878C11.6073 21.5389 11.6702 21.592 11.739 21.6343C12.9086 22.3518 13.8729 23.2964 14.499 24.5053C15.1054 25.6769 15.5821 26.9173 16.0814 28.142C16.3242 28.7387 16.4893 29.3677 16.7252 30.0921C17.8123 26.7326 18.6812 23.3799 21.9936 21.4534L21.9926 21.4505ZM13.1809 14.3038C11.7292 13.3868 10.3256 12.4992 8.92201 11.6126C8.36569 12.568 8.57898 13.6433 9.52551 14.2409C10.7129 14.9899 11.9356 14.9054 13.1809 14.3038ZM24.5373 11.6018C23.1092 12.5031 21.6967 13.3946 20.2617 14.3009C21.2702 14.8159 22.3061 14.9417 23.3765 14.5279C24.7044 14.0139 25.1388 12.8934 24.5373 11.6028V11.6018Z" fill="white"/>
</svg>
