<svg width="36" height="40" viewBox="0 0 36 40" fill="none" xmlns="http://www.w3.org/2000/svg">
<path fill-rule="evenodd" clip-rule="evenodd" d="M13.2804 2.26189C10.8975 3.5031 8.94796 4.55354 8.94844 4.59631C8.94956 4.70651 14.6674 7.60234 14.8703 7.5953C14.9626 7.59225 15.6323 7.28391 16.3585 6.91038L17.679 6.23123L19.1211 6.97253L20.5632 7.71399L22.9248 6.65282C26.4833 5.05377 26.8528 4.87854 26.795 4.81976C26.7181 4.74159 25.4418 4.05603 21.979 2.2329C20.3054 1.35177 18.6811 0.487937 18.3692 0.313024C18.0572 0.137951 17.7596 -0.00268412 17.7075 3.88852e-05C17.6555 0.00276189 15.6632 1.02052 13.2803 2.26173L13.2804 2.26189ZM2.82905 7.67378L0.348555 8.9552V14.5785C0.348555 17.6714 0.381071 20.2018 0.421115 20.2018C0.46116 20.2018 1.68139 19.6728 3.13307 19.0261L5.77262 17.8504V11.9231L7.06252 12.6258C8.05642 13.1669 9.05112 13.7067 10.0461 14.2455L11.7398 15.1625L12.4935 14.8217C12.9662 14.6075 13.4379 14.3914 13.9086 14.1731C14.2724 14.0036 15.1654 13.6014 15.8931 13.2792C16.6207 12.9567 17.2943 12.6324 17.3898 12.5585C17.5166 12.4603 15.9696 11.6055 11.6678 9.39632C8.42514 7.73113 5.66802 6.37395 5.54084 6.38052C5.41366 6.38708 4.19344 6.96885 2.82905 7.67362V7.67378ZM27.2417 8.0337C25.5524 8.7963 24.1689 9.45078 24.1673 9.4881C24.1659 9.52543 25.0866 10.0729 26.2136 10.7046C27.3404 11.3365 28.2625 11.8872 28.2625 11.9287C28.2625 11.9702 27.2653 12.4533 26.0467 13.0027C24.8277 13.5519 21.747 14.9432 19.2004 16.0944L10.6673 19.9515C8.52077 20.9218 6.586 21.7964 6.36767 21.8952C1.98332 23.88 0.778309 24.4307 0.612847 24.5252C0.446423 24.6203 0.408782 25.1732 0.379149 27.9485L0.34375 31.2585L2.56204 32.3887L4.78016 33.5189L7.85604 32.1308C9.54782 31.3674 10.9319 30.7029 10.9319 30.6539C10.9319 30.6048 10.6192 30.4014 10.2374 30.201C9.85536 30.0007 9.06649 29.5573 8.48441 29.2153C7.90233 28.8733 7.32201 28.5597 7.19451 28.5181C7.06717 28.4766 6.96481 28.404 6.9669 28.3566C6.96898 28.3093 8.32343 27.6661 9.97662 26.9269C13.1875 25.4912 15.6448 24.3847 20.9202 21.9992C23.2791 20.9326 25.6385 19.8671 27.9979 18.8016C30.0716 17.8655 32.4827 16.7725 33.3558 16.3723L34.9434 15.645L34.9786 12.2973L35.014 8.94975L32.7642 7.79504C31.5266 7.15994 30.469 6.64193 30.4136 6.64385C30.3581 6.64561 28.9306 7.2711 27.2414 8.03386L27.2417 8.0337ZM34.3408 20.1107C34.0092 20.2726 33.3544 20.5759 32.8856 20.7844C32.4167 20.993 31.5271 21.3944 30.9085 21.6766L29.7841 22.1895L29.7584 25.1284C29.7443 26.7447 29.6848 28.0601 29.6261 28.0516C29.493 28.0318 27.3854 26.9509 25.2669 25.8157C23.7379 24.9964 23.6418 24.9639 23.2825 25.1419C23.0747 25.2448 21.8332 25.8016 20.5234 26.3794C19.2137 26.9571 18.0995 27.4676 18.047 27.5137C17.9947 27.5599 20.6306 28.9885 23.9048 30.6888L29.8576 33.78L32.4006 32.4645C33.7991 31.7411 34.9882 31.0812 35.043 30.9982C35.1663 30.8116 35.1558 19.7905 35.0323 19.8054C34.9834 19.8113 34.6722 19.9486 34.3406 20.1105L34.3408 20.1107ZM20.2588 33.0469C19.8177 33.2365 19.3767 33.4265 18.9359 33.6166C17.6047 34.1926 17.8655 34.2117 16.2817 33.4233C15.2267 32.8982 14.772 32.7361 14.5746 32.8148C14.4266 32.8737 13.1524 33.447 11.743 34.0887C10.3336 34.7303 9.13168 35.2552 9.07194 35.2552C8.48057 35.2552 9.46373 35.8426 13.257 37.7561L17.7058 40L19.5776 39.0759C20.6071 38.5677 22.6836 37.5498 24.1921 36.8142C25.7005 36.0784 26.9161 35.4572 26.8934 35.4338C26.8705 35.4105 25.6065 34.7614 24.0845 33.9916L21.3171 32.592L20.2588 33.0472V33.0469Z" fill="white"/>
</svg>
